<svg width="18" height="23" viewBox="0 0 18 23" fill="none" xmlns="http://www.w3.org/2000/svg">
<path d="M11 10.125H5M7 14.125H5M13 6.125H5M17 5.925V16.325C17 18.0052 17 18.8452 16.673 19.487C16.3854 20.0515 15.9265 20.5104 15.362 20.798C14.7202 21.125 13.8802 21.125 12.2 21.125H5.8C4.11984 21.125 3.27976 21.125 2.63803 20.798C2.07354 20.5104 1.6146 20.0515 1.32698 19.487C1 18.8452 1 18.0052 1 16.325V5.925C1 4.24484 1 3.40476 1.32698 2.76303C1.6146 2.19854 2.07354 1.7396 2.63803 1.45198C3.27976 1.125 4.11984 1.125 5.8 1.125H12.2C13.8802 1.125 14.7202 1.125 15.362 1.45198C15.9265 1.7396 16.3854 2.19854 16.673 2.76303C17 3.40476 17 4.24484 17 5.925Z" stroke="#EAECEE" stroke-width="2" stroke-linecap="round" stroke-linejoin="round"/>
</svg>
