<svg width="20" height="19" viewBox="0 0 20 19" fill="none" xmlns="http://www.w3.org/2000/svg">
<path d="M16 7.125C16.9319 7.125 17.3978 7.125 17.7654 6.97276C18.2554 6.76977 18.6448 6.38042 18.8478 5.89037C19 5.52282 19 5.05688 19 4.125C19 3.19312 19 2.72718 18.8478 2.35963C18.6448 1.86958 18.2554 1.48023 17.7654 1.27724C17.3978 1.125 16.9319 1.125 16 1.125L8 1.125C7.06812 1.125 6.60218 1.125 6.23463 1.27724C5.74458 1.48023 5.35523 1.86958 5.15224 2.35963C5 2.72718 5 3.19312 5 4.125C5 5.05688 5 5.52282 5.15224 5.89037C5.35523 6.38042 5.74458 6.76977 6.23463 6.97276C6.60218 7.125 7.06812 7.125 8 7.125L16 7.125Z" stroke="#EAECEE" stroke-width="2" stroke-linecap="round" stroke-linejoin="round"/>
<path d="M16 17.125C16.9319 17.125 17.3978 17.125 17.7654 16.9728C18.2554 16.7698 18.6448 16.3804 18.8478 15.8904C19 15.5228 19 15.0569 19 14.125C19 13.1931 19 12.7272 18.8478 12.3596C18.6448 11.8696 18.2554 11.4802 17.7654 11.2772C17.3978 11.125 16.9319 11.125 16 11.125H4C3.06812 11.125 2.60218 11.125 2.23463 11.2772C1.74458 11.4802 1.35523 11.8696 1.15224 12.3596C1 12.7272 1 13.1931 1 14.125C1 15.0569 1 15.5228 1.15224 15.8904C1.35523 16.3804 1.74458 16.7698 2.23463 16.9728C2.60218 17.125 3.06812 17.125 4 17.125L16 17.125Z" stroke="#EAECEE" stroke-width="2" stroke-linecap="round" stroke-linejoin="round"/>
</svg>
