<svg width="24" height="14" viewBox="0 0 24 14" fill="none" xmlns="http://www.w3.org/2000/svg">
<path d="M23.2405 13.0238V7.21372C23.2405 6.63271 22.8531 6.24537 22.2721 6.24537C21.6911 6.24537 21.3038 6.63271 21.3038 7.21372V10.6998L13.7506 3.14664C13.3633 2.7593 12.7823 2.7593 12.3949 3.14664L8.231 7.31055L1.6462 0.725755C1.45253 0.532084 1.25886 0.435248 0.968353 0.435248C0.677847 0.435248 0.484176 0.532084 0.290506 0.725755C-0.0968353 1.1131 -0.0968353 1.69411 0.290506 2.08145L7.55315 9.34409C7.94049 9.73143 8.5215 9.73143 8.90885 9.34409L13.0728 5.18018L19.9481 12.0555H16.462C15.881 12.0555 15.4936 12.4428 15.4936 13.0238C15.4936 13.6048 15.881 13.9922 16.462 13.9922H22.2721C22.3689 13.9922 22.5626 13.9922 22.6595 13.8954C22.8531 13.7985 23.0468 13.6048 23.1436 13.4112C23.2405 13.3143 23.2405 13.1207 23.2405 13.0238Z" fill="#E62929"/>
</svg>
