<svg width="24" height="14" viewBox="0 0 24 14" fill="none" xmlns="http://www.w3.org/2000/svg">
<path d="M23.2405 0.968353V6.77847C23.2405 7.35948 22.8531 7.74682 22.2721 7.74682C21.6911 7.74682 21.3038 7.35948 21.3038 6.77847V3.2924L13.7506 10.8456C13.3633 11.2329 12.7823 11.2329 12.3949 10.8456L8.231 6.68163L1.6462 13.2664C1.45253 13.4601 1.25886 13.5569 0.968353 13.5569C0.677847 13.5569 0.484176 13.4601 0.290506 13.2664C-0.0968353 12.8791 -0.0968353 12.2981 0.290506 11.9107L7.55315 4.64809C7.94049 4.26075 8.5215 4.26075 8.90885 4.64809L13.0728 8.81201L19.9481 1.93671H16.462C15.881 1.93671 15.4936 1.54936 15.4936 0.968353C15.4936 0.387341 15.881 0 16.462 0H22.2721C22.3689 0 22.5626 0 22.6595 0.0968353C22.8531 0.193671 23.0468 0.387341 23.1436 0.581012C23.2405 0.677847 23.2405 0.871518 23.2405 0.968353Z" fill="#27AE60"/>
</svg>
