<svg width="551" height="798" viewBox="0 0 551 798" fill="none" xmlns="http://www.w3.org/2000/svg">
<path fill-rule="evenodd" clip-rule="evenodd" d="M284.067 66.4209C284.067 48.0793 290.56 32.4237 303.546 19.4542C316.532 6.48474 332.207 0 350.572 0C368.936 0 384.611 6.48474 397.597 19.4542C410.583 32.4237 417.076 48.0793 417.076 66.4209C417.076 84.7626 410.583 100.418 397.597 113.388C384.611 126.357 368.936 132.842 350.572 132.842C332.207 132.842 316.532 126.357 303.546 113.388C290.56 100.418 284.067 84.7626 284.067 66.4209Z" fill="black"/>
<path fill-rule="evenodd" clip-rule="evenodd" d="M284.067 465.897C284.067 447.555 290.56 431.9 303.546 418.93C316.532 405.961 332.207 399.476 350.572 399.476C368.936 399.476 384.611 405.961 397.597 418.93C410.583 431.9 417.076 447.555 417.076 465.897C417.076 484.239 410.583 499.894 397.597 512.864C384.611 525.833 368.936 532.318 350.572 532.318C332.207 532.318 316.532 525.833 303.546 512.864C290.56 499.894 284.067 484.239 284.067 465.897Z" fill="black"/>
<path fill-rule="evenodd" clip-rule="evenodd" d="M483.579 0H550.084V132.842H417.075V66.4209C417.075 29.7377 446.85 0 483.579 0Z" fill="#F8BA90"/>
<path fill-rule="evenodd" clip-rule="evenodd" d="M483.579 399.476H550.084V532.318H417.075V465.897C417.075 429.214 446.85 399.476 483.579 399.476Z" fill="#F8BA90"/>
<path fill-rule="evenodd" clip-rule="evenodd" d="M482.63 265.683C519.359 265.683 549.134 295.42 549.134 332.104V398.525H416.126V332.104C416.126 295.42 445.901 265.683 482.63 265.683Z" fill="#ED1D24"/>
<path fill-rule="evenodd" clip-rule="evenodd" d="M482.63 665.159C519.359 665.159 549.134 694.896 549.134 731.58V798H416.126V731.58C416.126 694.896 445.901 665.159 482.63 665.159Z" fill="#ED1D24"/>
<path fill-rule="evenodd" clip-rule="evenodd" d="M283.117 265.683H349.621C386.351 265.683 416.126 295.42 416.126 332.104V398.525H349.621C312.892 398.525 283.117 368.787 283.117 332.104V265.683Z" fill="#F8BA90"/>
<path fill-rule="evenodd" clip-rule="evenodd" d="M283.117 665.159H349.621C386.351 665.159 416.126 694.896 416.126 731.58V798H349.621C312.892 798 283.117 768.263 283.117 731.58V665.159Z" fill="#F8BA90"/>
<path fill-rule="evenodd" clip-rule="evenodd" d="M417.075 132.841H550.084V265.683H483.579C446.85 265.683 417.075 235.945 417.075 199.262V132.841Z" fill="black"/>
<path fill-rule="evenodd" clip-rule="evenodd" d="M417.075 532.317H550.084V665.159H483.579C446.85 665.159 417.075 635.421 417.075 598.738V532.317Z" fill="black"/>
<path fill-rule="evenodd" clip-rule="evenodd" d="M284.067 132.841H417.076V199.262C417.076 235.946 387.301 265.683 350.572 265.683H284.067V132.841Z" fill="#ED1D24"/>
<path fill-rule="evenodd" clip-rule="evenodd" d="M284.067 532.317H417.076V598.738C417.076 635.421 387.301 665.159 350.572 665.159H284.067V532.317Z" fill="#ED1D24"/>
<path fill-rule="evenodd" clip-rule="evenodd" d="M133.009 66.4209C133.009 48.0793 139.502 32.4237 152.487 19.4542C165.473 6.48474 181.148 0 199.513 0C217.878 0 233.553 6.48474 246.538 19.4542C259.524 32.4237 266.017 48.0793 266.017 66.4209C266.017 84.7626 259.524 100.418 246.538 113.388C233.553 126.357 217.878 132.842 199.513 132.842C181.148 132.842 165.473 126.357 152.487 113.388C139.502 100.418 133.009 84.7626 133.009 66.4209Z" fill="black"/>
<path fill-rule="evenodd" clip-rule="evenodd" d="M133.009 465.897C133.009 447.555 139.502 431.9 152.487 418.93C165.473 405.961 181.148 399.476 199.513 399.476C217.878 399.476 233.553 405.961 246.538 418.93C259.524 431.9 266.017 447.555 266.017 465.897C266.017 484.239 259.524 499.894 246.538 512.864C233.553 525.833 217.878 532.318 199.513 532.318C181.148 532.318 165.473 525.833 152.487 512.864C139.502 499.894 133.009 484.239 133.009 465.897Z" fill="black"/>
<path fill-rule="evenodd" clip-rule="evenodd" d="M0 0H66.5042C103.233 0 133.008 29.7377 133.008 66.4209V132.842H0V0Z" fill="#F8BA90"/>
<path fill-rule="evenodd" clip-rule="evenodd" d="M0 399.476H66.5042C103.233 399.476 133.008 429.214 133.008 465.897V532.318H0V399.476Z" fill="#F8BA90"/>
<path fill-rule="evenodd" clip-rule="evenodd" d="M67.4544 265.683C104.184 265.683 133.959 295.42 133.959 332.104V398.525H0.950195V332.104C0.950188 295.42 30.7251 265.683 67.4544 265.683Z" fill="#ED1D24"/>
<path fill-rule="evenodd" clip-rule="evenodd" d="M67.4544 665.159C104.184 665.159 133.959 694.896 133.959 731.58V798H0.950195V731.58C0.950188 694.896 30.7251 665.159 67.4544 665.159Z" fill="#ED1D24"/>
<path fill-rule="evenodd" clip-rule="evenodd" d="M200.462 265.683H266.966V332.104C266.966 368.787 237.191 398.525 200.462 398.525H133.958V332.104C133.958 295.42 163.733 265.683 200.462 265.683Z" fill="#F8BA90"/>
<path fill-rule="evenodd" clip-rule="evenodd" d="M200.462 665.159H266.966V731.58C266.966 768.263 237.191 798 200.462 798H133.958V731.58C133.958 694.896 163.733 665.159 200.462 665.159Z" fill="#F8BA90"/>
<path fill-rule="evenodd" clip-rule="evenodd" d="M0 132.841H133.008V199.262C133.008 235.946 103.233 265.683 66.5042 265.683H0V132.841Z" fill="black"/>
<path fill-rule="evenodd" clip-rule="evenodd" d="M0 532.317H133.008V598.738C133.008 635.421 103.233 665.159 66.5042 665.159H0V532.317Z" fill="black"/>
<path fill-rule="evenodd" clip-rule="evenodd" d="M133.009 132.841H266.017V265.683H199.513C162.784 265.683 133.009 235.945 133.009 199.262V132.841Z" fill="#ED1D24"/>
<path fill-rule="evenodd" clip-rule="evenodd" d="M133.009 532.317H266.017V665.159H199.513C162.784 665.159 133.009 635.421 133.009 598.738V532.317Z" fill="#ED1D24"/>
</svg>
